<?xml version="1.0" encoding="UTF-8" standalone="no"?> <svg    xmlns:dc="http://purl.org/dc/elements/1.1/"    xmlns:cc="http://creativecommons.org/ns#"    xmlns:rdf="http://www.w3.org/1999/02/22-rdf-syntax-ns#"    xmlns:svg="http://www.w3.org/2000/svg"    xmlns="http://www.w3.org/2000/svg"    height="50"    width="160"    version="1.1"    viewBox="0 0 160.00001 50"    data-name="Layer 1"    id="Layer_1">   <metadata      id="metadata31">     <rdf:RDF>       <cc:Work          rdf:about="">         <dc:format>image/svg+xml</dc:format>         <dc:type            rdf:resource="http://purl.org/dc/dcmitype/StillImage" />         <dc:title>reg-logo-vector</dc:title>       </cc:Work>     </rdf:RDF>   </metadata>   <defs      id="defs4">     <style        id="style2">.cls-1{fill:#e2001a;}</style>   </defs>   <title      id="title6">reg-logo-vector</title>   <polygon      style="fill:#1a1a1a;fill-opacity:1"      id="polygon20"      points="969.39,73.64 949.3,73.64 922.75,139.91 896.25,73.64 876.15,73.64 913.42,166.87 932.12,166.87 "      class="cls-1"      transform="matrix(0.30033792,0,0,0.30140347,-184.07957,-7.994294)" />   <path      style="fill:#1a1a1a;fill-opacity:1;stroke-width:1.1098752"      id="path18-7"      d="m 43.010688,2.481438 v 14.631826 a 14.557959,14.609607 0 1 0 0,23.348684 v 2.94638 h 5.816537 V 2.481438 Z m -8.741423,35.045249 a 8.7303436,8.7613168 0 1 1 8.741423,-8.761316 8.7414225,8.772435 0 0 1 -8.741423,8.761316 z"      class="cls-1" />   <path      id="path34"      style="fill:#1a1a1a;fill-opacity:1;fill-rule:nonzero;stroke:none;stroke-width:1.01390493"      d="m 65.817557,19.55809 c -0.93924,0 -1.83597,0.141188 -2.69019,0.423552 -0.854225,0.28338 -1.638609,0.683567 -2.352148,1.201573 -0.713539,0.519022 -1.333969,1.135555 -1.859254,1.851624 -0.525287,0.717088 -0.939237,1.498157 -1.238827,2.346274 H 73.987315 C 73.684698,24.532996 73.267712,23.751927 72.732299,23.034839 72.198914,22.31877 71.573434,21.702237 70.859895,21.183215 70.146356,20.665209 69.361975,20.265022 68.507749,19.981642 67.651504,19.699278 66.756794,19.55809 65.817557,19.55809 m 0,-5.823019 c 2.008029,0 3.892576,0.376829 5.647578,1.13048 1.755,0.753651 3.291383,1.790683 4.606115,3.109061 1.314733,1.319396 2.346082,2.860219 3.099092,4.622461 0.749971,1.762245 1.127484,3.651449 1.127484,5.667618 v 2.912015 H 57.677138 c 0.29959,0.848114 0.71354,1.626141 1.238827,2.332057 0.525285,0.706926 1.145715,1.314314 1.859254,1.823181 0.713539,0.508866 1.497923,0.904994 2.352148,1.187355 0.85422,0.283381 1.75095,0.424563 2.69019,0.424563 1.184166,0 2.304574,-0.221422 3.366283,-0.665283 1.059683,-0.44183 1.97665,-1.05938 2.745855,-1.850613 l 4.114229,4.1268 c -1.314729,1.319398 -2.840989,2.351349 -4.578789,3.094841 -1.737793,0.745529 -3.619309,1.117272 -5.647578,1.117272 -2.01006,0 -3.887517,-0.376821 -5.633414,-1.130472 -1.746905,-0.753651 -3.278229,-1.790686 -4.591951,-3.110078 -1.314729,-1.318382 -2.348095,-2.855144 -3.099078,-4.607227 -0.750988,-1.753097 -1.126483,-3.637226 -1.126483,-5.654411 0,-2.016169 0.375495,-3.905373 1.126483,-5.667618 0.750983,-1.762242 1.784349,-3.303065 3.099078,-4.622461 1.313722,-1.318378 2.845046,-2.35541 4.591951,-3.109061 1.745897,-0.753651 3.623354,-1.13048 5.633414,-1.13048" />   <path      id="path44"      style="fill:#1a1a1a;fill-opacity:1;fill-rule:nonzero;stroke:none;stroke-width:0.97301567"      d="m 127.6327,25.484178 c 1.1539,0 2.23981,0.216394 3.25772,0.651126 3.11453,1.456327 5.09867,4.420532 5.12261,7.704349 0,1.157018 -0.22048,2.242875 -0.66145,3.255633 -0.44195,1.012753 -1.04026,1.898795 -1.79593,2.658117 -0.75566,0.760295 -1.64343,1.356836 -2.66038,1.790596 -1.01694,0.433761 -2.10187,0.651127 -3.25481,0.651127 h -19.44434 v -5.588185 h 19.46378 c 0.3788,0 0.73817,-0.07213 1.08104,-0.217367 0.3419,-0.144262 0.64494,-0.34311 0.90622,-0.596541 0.26031,-0.253436 0.46331,-0.546828 0.60706,-0.882145 0.14473,-0.334333 0.2166,-0.69206 0.2166,-1.071235 0,-0.380147 -0.0719,-0.741776 -0.2166,-1.084887 -0.14375,-0.343108 -0.34675,-0.637477 -0.60706,-0.882136 -0.26128,-0.243693 -0.56432,-0.437666 -0.90622,-0.582895 -0.34287,-0.145235 -0.70224,-0.217372 -1.08104,-0.217372 h -11.08345 c -1.15389,0 -2.2398,-0.221261 -3.25772,-0.66477 -1.01791,-0.442532 -1.90568,-1.043948 -2.66231,-1.804243 -0.75761,-0.759328 -1.3569,-1.650241 -1.79786,-2.671766 -0.44195,-1.021524 -0.66244,-2.111286 -0.66244,-3.269277 0,-1.157018 0.22049,-2.241902 0.66244,-3.255636 0.44096,-1.012752 1.04025,-1.898789 1.79786,-2.658114 0.75663,-0.760297 1.6444,-1.356841 2.66231,-1.790601 1.01792,-0.434736 2.10383,-0.65113 3.25772,-0.65113 h 13.89437 v 5.588194 h -13.9167 c -0.37979,0 -0.74013,0.07213 -1.083,0.217363 -0.34287,0.145235 -0.64494,0.339209 -0.90719,0.582895 -0.26224,0.244662 -0.46428,0.539034 -0.60997,0.882142 -0.14376,0.343108 -0.21563,0.70474 -0.21563,1.084887 0,0.38015 0.0719,0.741774 0.21563,1.084882 0.14473,0.344085 0.34773,0.64236 0.60803,0.895788 0.26128,0.253436 0.56335,0.457154 0.90622,0.610188 0.34189,0.154009 0.70225,0.231013 1.08105,0.231013 z" />   <path      style="fill:#e0001a;fill-opacity:1;stroke-width:0.44139284"      id="path24"      d="m 137.23862,9.451905 -2.36168,3.431277 a 18.615853,18.681898 0 0 1 0,30.744432 l 2.36609,3.422347 a 22.784042,22.864875 0 0 0 0,-37.584792"      class="cls-1" />   <path      style="fill:#e0001a;fill-opacity:1;stroke-width:0.44139284"      id="path26"      d="m 19.797438,47.049961 2.366086,-3.426768 a 18.611447,18.677477 0 0 1 0,-30.740011 l -2.36168,-3.431277 a 22.788448,22.869297 0 0 0 0,37.584791"      class="cls-1" /> </svg>
